<svg xmlns="http://www.w3.org/2000/svg" width="64" height="64" viewBox="0 0 64 64" role="img" aria-labelledby="title desc">
  <title id="title">EnjoyTrip logo mark</title>
  <desc id="desc">A map pin with a travel route, mountain, and sun.</desc>
  <defs>
    <linearGradient id="pinGradient" x1="13" y1="5" x2="50" y2="59" gradientUnits="userSpaceOnUse">
      <stop stop-color="#0085ff" />
      <stop offset="0.52" stop-color="#0070dd" />
      <stop offset="1" stop-color="#005bb8" />
    </linearGradient>
  </defs>
  <path fill="url(#pinGradient)" d="M32 3C19.6 3 9.5 13 9.5 25.4c0 16.6 19.3 32.9 21 34.3a2.4 2.4 0 0 0 3 0c1.7-1.4 21-17.7 21-34.3C54.5 13 44.4 3 32 3Z" />
  <circle cx="32" cy="25.9" r="16.7" fill="#ffffff" />
  <circle cx="30.2" cy="22.2" r="5.4" fill="#ffb400" />
  <path fill="#191f28" d="M17.4 35.1c5.7-6.6 10.7-9.9 15.1-9.9 3 0 5.8 1.4 8.4 4.2 2.5 2.7 4.5 4.4 6 5.1v6.1H17.4v-5.5Z" />
  <path fill="#ffffff" d="M21.4 37.7c3.6-3.6 7-5.5 10.3-5.5 2.4 0 4.5.8 6.5 2.5 1.7 1.4 3.4 2.4 5.1 3H21.4Z" opacity="0.94" />
  <path stroke="#fff" stroke-linecap="round" stroke-width="7" d="M32.4 58.4c.6-7.9-.7-13.4-3.9-16.7-2.1-2.2-1.6-5 1.4-6.5 3.2-1.7 7.7-1 13.6 2.1" />
  <path stroke="#191f28" stroke-linecap="round" stroke-width="2.8" d="M32.4 57.5c.3-6.6-.8-11.2-3.2-13.6-1.3-1.4-.9-3 1.2-4.1 2.4-1.2 5.8-.6 10.3 1.8" stroke-dasharray="2.8 5.6" />
</svg>
